<?xml version="1.0" encoding="UTF-8"?>
<svg xmlns="http://www.w3.org/2000/svg" xmlns:xlink="http://www.w3.org/1999/xlink" width="25px" height="25px" viewBox="0 0 25 25" version="1.1">
<g id="surface1">
<path style=" stroke:none;fill-rule:nonzero;fill:rgb(0%,0%,0%);fill-opacity:1;" d="M 14.710938 12.5 L 24.542969 2.667969 C 25.152344 2.058594 25.152344 1.066406 24.542969 0.457031 C 23.933594 -0.152344 22.941406 -0.152344 22.332031 0.457031 L 12.5 10.289062 L 2.667969 0.457031 C 2.058594 -0.152344 1.066406 -0.152344 0.457031 0.457031 C -0.152344 1.066406 -0.152344 2.058594 0.457031 2.667969 L 10.289062 12.5 L 0.457031 22.332031 C -0.152344 22.941406 -0.152344 23.933594 0.457031 24.542969 C 1.066406 25.152344 2.058594 25.152344 2.667969 24.542969 L 12.5 14.710938 L 22.332031 24.542969 C 22.941406 25.152344 23.933594 25.152344 24.542969 24.542969 C 25.152344 23.933594 25.152344 22.941406 24.542969 22.332031 Z M 14.710938 12.5 "/>
</g>
</svg>
