<?xml version="1.0" encoding="UTF-8"?>
<svg xmlns="http://www.w3.org/2000/svg" xmlns:xlink="http://www.w3.org/1999/xlink" width="25px" height="25px" viewBox="0 0 25 25" version="1.1">
<g id="surface1">
<path style=" stroke:none;fill-rule:nonzero;fill:rgb(0%,0%,0%);fill-opacity:1;" d="M 23.4375 10.9375 L 1.5625 10.9375 C 0.699219 10.9375 0 11.636719 0 12.5 C 0 13.363281 0.699219 14.0625 1.5625 14.0625 L 23.4375 14.0625 C 24.300781 14.0625 25 13.363281 25 12.5 C 25 11.636719 24.300781 10.9375 23.4375 10.9375 Z M 23.4375 10.9375 "/>
<path style=" stroke:none;fill-rule:nonzero;fill:rgb(0%,0%,0%);fill-opacity:1;" d="M 1.5625 6.769531 L 23.4375 6.769531 C 24.300781 6.769531 25 6.070312 25 5.207031 C 25 4.34375 24.300781 3.644531 23.4375 3.644531 L 1.5625 3.644531 C 0.699219 3.644531 0 4.34375 0 5.207031 C 0 6.070312 0.699219 6.769531 1.5625 6.769531 Z M 1.5625 6.769531 "/>
<path style=" stroke:none;fill-rule:nonzero;fill:rgb(0%,0%,0%);fill-opacity:1;" d="M 23.4375 18.230469 L 1.5625 18.230469 C 0.699219 18.230469 0 18.929688 0 19.792969 C 0 20.65625 0.699219 21.355469 1.5625 21.355469 L 23.4375 21.355469 C 24.300781 21.355469 25 20.65625 25 19.792969 C 25 18.929688 24.300781 18.230469 23.4375 18.230469 Z M 23.4375 18.230469 "/>
</g>
</svg>
